<?xml version='1.0' encoding='iso-8859-1'?>
<svg version="1.1" xmlns="http://www.w3.org/2000/svg" viewBox="0 0 463 463" xmlns:xlink="http://www.w3.org/1999/xlink" enable-background="new 0 0 463 463">
  <g>
    <path d="m429.24,337.005l-8.95-5.167c1.223-11.271-3.396-27.974-8.072-41.314-7.409-21.136-18.033-42.387-29.451-59.026 10.075-14.712 17.535-30.122 21.42-38.852 6.195-13.921 11.121-28.089 13.872-39.893 2.437-10.456 2.734-17.218 2.279-21.617l8.903-5.14c3.587-2.071 4.816-6.658 2.745-10.245-2.071-3.587-6.659-4.817-10.245-2.745l-8.953,5.169c-9.026-6.598-25.46-10.915-39.072-13.527-22.143-4.249-46.223-5.731-66.58-4.142-7.704-16.084-17.321-30.251-22.94-37.982-8.958-12.325-18.765-23.676-27.612-31.96-7.839-7.34-13.547-10.978-17.584-12.784v-10.28c0-4.142-3.358-7.5-7.5-7.5s-7.5,3.358-7.5,7.5v10.335c-10.347,4.566-22.468,16.87-31.658,27.548-14.626,16.996-27.762,36.872-36.48,55.117-17.778-1.369-34.851-0.125-44.355,0.876-8.309,0.875-45.787,5.384-61.312,16.787l-8.936-5.159c-3.588-2.072-8.174-0.842-10.245,2.745s-0.842,8.174 2.745,10.245l8.949,5.167c-1.231,11.322 3.436,28.13 8.157,41.552 7.414,21.081 17.997,42.212 29.37,58.785-10.077,14.713-17.537,30.125-21.423,38.856-6.195,13.921-11.121,28.089-13.872,39.893-2.437,10.457-2.734,17.218-2.279,21.617l-8.903,5.14c-3.587,2.071-4.816,6.658-2.745,10.245 1.389,2.406 3.91,3.751 6.502,3.751 1.272,0 2.562-0.324 3.743-1.006l8.95-5.167c9.153,6.698 25.939,11.05 39.839,13.671 16.172,3.049 33.263,4.627 49.171,4.627 5.739,0 11.315-0.213 16.647-0.629 7.704,16.083 17.32,30.25 22.939,37.981 8.958,12.325 18.765,23.676 27.612,31.96 7.837,7.338 13.545,10.976 17.582,12.782v10.28c0,4.142 3.358,7.5 7.5,7.5s7.5-3.358 7.5-7.5v-10.334c10.373-4.576 22.529-16.929 31.745-27.65 14.6-16.986 27.692-36.813 36.392-55.021 5.622,0.433 11.177,0.613 16.441,0.613 11.378,0 21.417-0.8 27.914-1.484 8.309-0.875 45.787-5.384 61.312-16.787l8.936,5.159c1.181,0.682 2.471,1.006 3.743,1.006 2.592,0 5.113-1.346 6.502-3.751 2.073-3.587 0.844-8.174-2.743-10.245zm-59.25-217.797c23.015,4.319 33.551,9.938 35.144,12.046 1.701,3.96-1.012,24.955-15.063,56.21-13.762,30.613-31,54.098-46.112,62.823-12.748,7.36-28.31,6.728-40.547,4.321 0.633-1.695 2.333-3.932 3.991-6.105 3.384-4.434 7.596-9.953 7.596-17.003 0-7.051-4.212-12.569-7.596-17.004-1.732-2.27-3.524-4.617-4.082-6.334-0.616-1.898-0.558-4.971-0.5-7.942 0.008-0.413 0.015-0.83 0.022-1.25l36.329-20.974c3.587-2.071 4.816-6.658 2.745-10.245s-6.657-4.816-10.245-2.745l-24.024,13.87c7.458-11.637 11.352-23.668 11.352-35.376 0-9.096-2.265-18.827-5.701-28.369 17.637-0.889 37.865,0.543 56.691,4.077zm-82.165,143.861c0.065,3.405 0.139,7.266-0.901,8.695-1.073,1.474-4.795,2.598-8.08,3.59-3.828,1.156-8.166,2.466-11.788,5.102-3.581,2.606-6.139,6.302-8.395,9.563-1.967,2.843-4.196,6.065-5.985,6.646-1.598,0.518-5.354-0.782-8.372-1.827-1.028-0.356-2.096-0.723-3.193-1.072-0.48-0.203-0.981-0.355-1.498-0.456-2.571-0.743-5.294-1.31-8.113-1.31-4.606,0-8.961,1.508-12.804,2.838-3.019,1.045-6.773,2.344-8.372,1.827-1.789-0.581-4.019-3.804-5.986-6.647-2.256-3.261-4.814-6.957-8.395-9.563-3.623-2.636-7.96-3.946-11.788-5.102-3.284-0.992-7.007-2.116-8.08-3.591-1.04-1.429-0.966-5.289-0.901-8.694 0.077-4.015 0.165-8.566-1.231-12.863-1.348-4.151-4.044-7.684-6.424-10.802-2.119-2.776-4.52-5.922-4.52-7.903s2.401-5.127 4.52-7.903c2.38-3.118 5.077-6.651 6.424-10.802 1.396-4.297 1.309-8.849 1.231-12.864-0.065-3.405-0.139-7.266 0.901-8.695 1.073-1.474 4.795-2.598 8.08-3.59 3.828-1.156 8.166-2.466 11.788-5.102 3.581-2.606 6.139-6.302 8.395-9.563 1.967-2.843 4.196-6.065 5.985-6.646 0.25-0.081 0.553-0.118 0.898-0.118 1.858,0 4.929,1.063 7.474,1.944 3.842,1.331 8.197,2.838 12.804,2.838s8.961-1.508 12.804-2.838c3.019-1.044 6.777-2.344 8.372-1.827 1.789,0.581 4.019,3.804 5.986,6.647 2.256,3.261 4.814,6.957 8.395,9.563 3.623,2.636 7.96,3.946 11.788,5.102 3.284,0.992 7.007,2.116 8.08,3.591 1.04,1.429 0.966,5.289 0.901,8.694-0.077,4.015-0.165,8.566 1.231,12.863 1.348,4.151 4.044,7.684 6.424,10.802 2.119,2.776 4.52,5.922 4.52,7.903s-2.401,5.127-4.52,7.903c-2.38,3.118-5.077,6.651-6.424,10.802-1.395,4.298-1.308,8.85-1.231,12.865zm-84.71-207.205c15.449-18.1 25.726-24.529 28.386-24.859 4.281,0.507 21.105,13.353 41.148,41.149 19.631,27.225 31.351,53.896 31.351,71.346 0,12.703-6.281,24.193-12.784,32.694-2.696-1.289-5.512-2.145-8.035-2.907-2.817-0.851-5.731-1.731-7.297-2.871-1.521-1.107-3.232-3.58-4.886-5.97-3.154-4.559-7.08-10.232-13.688-12.378-6.384-2.073-12.509,0.048-17.914,1.919-0.132,0.046-0.264,0.091-0.396,0.136v-42.623c0-4.142-3.358-7.5-7.5-7.5s-7.5,3.358-7.5,7.5v27.735c-6.338-12.275-14.779-21.634-24.96-27.512-7.876-4.547-17.432-7.45-27.412-9.246 7.958-15.544 19.131-32.136 31.487-46.613zm-137.792,112.74c-8.064-22.637-8.51-34.863-7.457-37.353 2.579-3.454 22.117-11.601 56.21-15.061 33.393-3.39 62.35-0.202 77.462,8.522 10.503,6.064 17.253,16.49 21.569,26.594-2.414-0.217-4.895-0.059-7.417,0.761-6.608,2.146-10.533,7.819-13.688,12.378-1.654,2.39-3.364,4.862-4.886,5.97-1.566,1.14-4.48,2.02-7.298,2.871-5.272,1.592-11.833,3.573-15.872,9.123-0.247,0.339-0.477,0.683-0.694,1.029l-31.928-18.433c-3.588-2.072-8.175-0.842-10.245,2.745-2.071,3.587-0.842,8.174 2.745,10.245l24.011,13.863c-13.798-0.647-26.123,1.99-36.298,7.865-7.876,4.547-15.168,11.371-21.713,19.116-9.414-14.562-18.139-32.378-24.501-50.235zm28.407,175.322c-23.494-4.332-34.243-10.034-35.864-12.179-1.702-3.959 1.011-24.953 15.063-56.211 13.762-30.613 31-54.098 46.112-62.823 12.766-7.369 28.353-6.719 40.547-4.321-0.633,1.694-2.333,3.932-3.991,6.104-3.384,4.434-7.596,9.953-7.596,17.003 0,7.051 4.212,12.569 7.596,17.004 1.732,2.27 3.524,4.617 4.082,6.334 0.616,1.898 0.558,4.971 0.5,7.942-0.008,0.413-0.016,0.83-0.022,1.25l-36.329,20.974c-3.587,2.071-4.816,6.658-2.745,10.245 1.389,2.406 3.91,3.751 6.502,3.751 1.272,0 2.562-0.324 3.743-1.006l24.019-13.867c-7.456,11.637-11.347,23.67-11.347,35.374 0,9.094 2.264,18.822 5.698,28.362-17.392,0.878-37.281-0.491-55.968-3.936zm166.236,63.115c-15.492,18.17-25.799,24.624-28.467,24.955-4.281-0.507-21.105-13.353-41.148-41.149-19.631-27.226-31.351-53.897-31.351-71.347 0-10.713 4.292-21.692 12.768-32.702 2.7,1.293 5.523,2.151 8.051,2.914 2.817,0.851 5.731,1.731 7.297,2.871 1.521,1.107 3.232,3.58 4.886,5.97 3.154,4.559 7.08,10.232 13.688,12.378 6.386,2.075 12.51-0.048 17.914-1.919 0.132-0.046 0.264-0.091 0.396-0.136v42.624c0,4.142 3.358,7.5 7.5,7.5s7.5-3.358 7.5-7.5v-27.748c6.334,12.275 14.763,21.638 24.96,27.525 7.876,4.548 17.435,7.446 27.414,9.241-7.939,15.508-19.075,32.057-31.408,46.523zm88.957-60.232c-33.393,3.39-62.35,0.203-77.462-8.522-10.464-6.041-17.227-16.394-21.58-26.597 0.631,0.057 1.265,0.096 1.905,0.096 1.811,0 3.656-0.248 5.523-0.854 6.608-2.146 10.533-7.819 13.688-12.378 1.654-2.39 3.364-4.862 4.886-5.97 1.566-1.14 4.48-2.02 7.298-2.871 5.272-1.592 11.833-3.573 15.872-9.123 0.247-0.339 0.477-0.682 0.694-1.029l31.928,18.433c1.181,0.682 2.471,1.006 3.743,1.006 2.592,0 5.113-1.346 6.502-3.751 2.071-3.587 0.842-8.174-2.745-10.245l-24.021-13.868c1.361,0.064 2.713,0.108 4.045,0.108 12.169,0 23.088-2.669 32.263-7.967 7.876-4.547 15.168-11.372 21.713-19.116 9.46,14.629 18.224,32.547 24.583,50.459 7.989,22.5 8.424,34.652 7.377,37.128-2.581,3.454-22.118,11.602-56.212,15.061z"/>
    <path d="m253.129,224.686c1.204-2.823 1.871-5.928 1.871-9.186 0-12.958-10.542-23.5-23.5-23.5s-23.5,10.542-23.5,23.5c0,3.258 0.668,6.363 1.871,9.186-10.248,2.529-17.871,11.796-17.871,22.814 0,12.958 10.542,23.5 23.5,23.5 6.177,0 11.801-2.399 16-6.31 4.199,3.911 9.823,6.31 16,6.31 12.958,0 23.5-10.542 23.5-23.5 0-11.018-7.623-20.285-17.871-22.814zm-21.629-17.686c4.687,0 8.5,3.813 8.5,8.5s-3.813,8.5-8.5,8.5-8.5-3.813-8.5-8.5 3.813-8.5 8.5-8.5zm-16,49c-4.687,0-8.5-3.813-8.5-8.5s3.813-8.5 8.5-8.5 8.5,3.813 8.5,8.5-3.813,8.5-8.5,8.5zm32,0c-4.687,0-8.5-3.813-8.5-8.5s3.813-8.5 8.5-8.5 8.5,3.813 8.5,8.5-3.813,8.5-8.5,8.5z"/>
  </g>
</svg>
